<mxfile host="app.diagrams.net" agent="Mozilla/5.0 (Windows NT 10.0; Win64; x64) AppleWebKit/537.36 (KHTML, like Gecko) Chrome/131.0.0.0 Safari/537.36" version="24.8.6">
  <diagram name="Seite-1" id="wJBI6WCEb2BTEk0uj4uB">
    <mxGraphModel dx="1383" dy="814" grid="1" gridSize="10" guides="1" tooltips="1" connect="1" arrows="1" fold="1" page="1" pageScale="1" pageWidth="827" pageHeight="1169" math="0" shadow="0">
      <root>
        <mxCell id="0" />
        <mxCell id="1" parent="0" />
        <mxCell id="65i6qwLtC-aq_9Xr31Sh-16" value="" style="ellipse;html=1;shape=endState;fillColor=strokeColor;strokeWidth=0;" parent="1" vertex="1">
          <mxGeometry x="60" y="140" width="30" height="30" as="geometry" />
        </mxCell>
        <mxCell id="65i6qwLtC-aq_9Xr31Sh-17" value="Sits down" style="text;html=1;align=center;verticalAlign=middle;resizable=0;points=[];autosize=1;strokeColor=none;fillColor=none;" parent="1" vertex="1">
          <mxGeometry x="35" y="105" width="80" height="30" as="geometry" />
        </mxCell>
        <mxCell id="65i6qwLtC-aq_9Xr31Sh-18" value="&lt;font style=&quot;font-size: 11px;&quot;&gt;Scene 3&lt;br&gt;&lt;/font&gt;&lt;div style=&quot;font-size: 11px;&quot;&gt;&lt;font style=&quot;font-size: 11px;&quot;&gt;(Sit down at desk)&lt;/font&gt;&lt;/div&gt;" style="shape=folder;align=center;verticalAlign=middle;fontStyle=0;tabWidth=100;tabHeight=30;tabPosition=left;html=1;boundedLbl=1;labelInHeader=1;rounded=1;absoluteArcSize=1;arcSize=10;whiteSpace=wrap;" parent="1" vertex="1">
          <mxGeometry x="190" y="80" width="580" height="200" as="geometry" />
        </mxCell>
        <mxCell id="65i6qwLtC-aq_9Xr31Sh-19" style="edgeStyle=orthogonalEdgeStyle;rounded=0;orthogonalLoop=1;jettySize=auto;html=1;" parent="1" edge="1">
          <mxGeometry relative="1" as="geometry">
            <mxPoint x="96.01996036459286" y="155.0344827586207" as="sourcePoint" />
            <mxPoint x="190" y="156" as="targetPoint" />
          </mxGeometry>
        </mxCell>
        <mxCell id="65i6qwLtC-aq_9Xr31Sh-20" value="" style="ellipse;html=1;shape=endState;fillColor=strokeColor;strokeWidth=0;" parent="1" vertex="1">
          <mxGeometry x="275" y="130" width="30" height="30" as="geometry" />
        </mxCell>
        <mxCell id="65i6qwLtC-aq_9Xr31Sh-21" style="edgeStyle=orthogonalEdgeStyle;rounded=0;orthogonalLoop=1;jettySize=auto;html=1;entryX=0;entryY=0.5;entryDx=0;entryDy=0;" parent="1" source="65i6qwLtC-aq_9Xr31Sh-22" target="65i6qwLtC-aq_9Xr31Sh-25" edge="1">
          <mxGeometry relative="1" as="geometry" />
        </mxCell>
        <mxCell id="65i6qwLtC-aq_9Xr31Sh-22" value="Player can look around" style="rounded=1;whiteSpace=wrap;html=1;" parent="1" vertex="1">
          <mxGeometry x="240" y="200" width="120" height="60" as="geometry" />
        </mxCell>
        <mxCell id="65i6qwLtC-aq_9Xr31Sh-23" style="edgeStyle=orthogonalEdgeStyle;rounded=0;orthogonalLoop=1;jettySize=auto;html=1;exitX=0.5;exitY=1;exitDx=0;exitDy=0;" parent="1" source="65i6qwLtC-aq_9Xr31Sh-20" edge="1">
          <mxGeometry relative="1" as="geometry">
            <mxPoint x="290.00033988749874" y="180" as="sourcePoint" />
            <mxPoint x="290.00033988749874" y="200" as="targetPoint" />
          </mxGeometry>
        </mxCell>
        <mxCell id="65i6qwLtC-aq_9Xr31Sh-25" value="Interacts with computer" style="rounded=1;whiteSpace=wrap;html=1;" parent="1" vertex="1">
          <mxGeometry x="455" y="200" width="120" height="60" as="geometry" />
        </mxCell>
        <mxCell id="65i6qwLtC-aq_9Xr31Sh-29" value="" style="endArrow=classic;html=1;rounded=0;exitX=1;exitY=0.5;exitDx=0;exitDy=0;entryX=0;entryY=0.5;entryDx=0;entryDy=0;" parent="1" source="65i6qwLtC-aq_9Xr31Sh-25" target="65i6qwLtC-aq_9Xr31Sh-30" edge="1">
          <mxGeometry width="50" height="50" relative="1" as="geometry">
            <mxPoint x="630" y="260" as="sourcePoint" />
            <mxPoint x="680" y="210" as="targetPoint" />
          </mxGeometry>
        </mxCell>
        <mxCell id="65i6qwLtC-aq_9Xr31Sh-30" value="" style="ellipse;html=1;shape=endState;fillColor=strokeColor;" parent="1" vertex="1">
          <mxGeometry x="690" y="215" width="30" height="30" as="geometry" />
        </mxCell>
        <mxCell id="65i6qwLtC-aq_9Xr31Sh-31" value="Player goes home" style="text;html=1;align=center;verticalAlign=middle;whiteSpace=wrap;rounded=0;" parent="1" vertex="1">
          <mxGeometry x="630" y="160" width="150" height="40" as="geometry" />
        </mxCell>
      </root>
    </mxGraphModel>
  </diagram>
</mxfile>
